<?xml version="1.0" encoding="UTF-8"?>
<svg width="80" height="48" viewBox="0 0 80 48" fill="none" xmlns="http://www.w3.org/2000/svg">
  <!-- AWS Logo -->
  <path d="M22.7 27.1c0 .7.1 1.3.2 1.7.2.4.4.9.7 1.4.1.2.1.3.1.4 0 .2-.1.3-.3.5l-1 .7c-.1.1-.3.1-.4.1-.2 0-.3-.1-.4-.2-.3-.3-.5-.7-.8-1-.2-.4-.5-.8-.7-1.3-1.8 2.1-4.1 3.2-6.7 3.2-1.9 0-3.5-.5-4.6-1.6-1.1-1.1-1.7-2.5-1.7-4.2 0-1.9.7-3.4 2-4.5 1.4-1.1 3.2-1.7 5.4-1.7.8 0 1.5.1 2.4.2.8.1 1.7.3 2.6.5v-1.6c0-1.7-.3-2.8-1-3.5-.7-.7-1.9-1-3.6-1-.8 0-1.6.1-2.4.3-.8.2-1.6.5-2.4.8-.4.2-.6.2-.8.2-.3 0-.5-.2-.5-.7v-.8c0-.4.1-.6.2-.8.1-.2.3-.3.7-.5.8-.4 1.7-.7 2.8-1 1.1-.3 2.2-.4 3.4-.4 2.6 0 4.5.6 5.7 1.8 1.2 1.2 1.8 3 1.8 5.4v7.1zm-9.2 3.4c.7 0 1.5-.1 2.3-.4.8-.3 1.5-.8 2.1-1.5.4-.4.6-.9.8-1.5.1-.6.2-1.3.2-2.1v-1c-.6-.2-1.3-.3-2.1-.4-.7-.1-1.5-.2-2.2-.2-1.5 0-2.6.3-3.3.9-.7.6-1.1 1.4-1.1 2.5 0 1 .3 1.8.8 2.3.5.6 1.4.9 2.5.4zm18.2 2.4c-.4 0-.7-.1-.9-.2-.2-.2-.4-.5-.5-.9l-5.7-18.8c-.1-.4-.2-.7-.2-.9 0-.4.2-.6.6-.6h1.6c.4 0 .7.1.9.2.2.2.3.5.4.9l4 15.8 3.8-15.8c.1-.5.2-.7.4-.9.2-.2.5-.2.9-.2h1.3c.4 0 .7.1.9.2.2.2.3.5.4.9l3.8 16 4.1-16c.1-.5.3-.7.4-.9.2-.2.5-.2.9-.2h1.5c.4 0 .6.2.6.6 0 .1 0 .2-.1.4 0 .2-.1.3-.2.5l-5.8 18.8c-.1.5-.3.7-.5.9-.2.2-.5.2-.9.2h-1.4c-.4 0-.7-.1-.9-.2-.2-.2-.3-.5-.4-.9l-3.7-15.4-3.7 15.4c-.1.5-.2.7-.4.9-.2.2-.5.2-.9.2h-1.4zm29.1.6c-1.2 0-2.4-.1-3.5-.4-1.1-.3-2-.6-2.5-.9-.3-.2-.5-.4-.6-.6-.1-.2-.1-.4-.1-.6v-.9c0-.5.2-.7.5-.7.1 0 .3 0 .4.1.1.1.3.1.5.2.7.3 1.4.6 2.3.8.9.2 1.7.3 2.6.3 1.4 0 2.4-.2 3.2-.7.7-.5 1.1-1.1 1.1-2 0-.6-.2-1.1-.6-1.5-.4-.4-1.1-.7-2.2-1.1l-3.1-1c-1.6-.5-2.8-1.3-3.5-2.2-.7-.9-1.1-2-1.1-3.1 0-.9.2-1.7.6-2.4.4-.7 1-1.3 1.7-1.8.7-.5 1.5-.9 2.4-1.1.9-.2 1.9-.4 2.9-.4.5 0 1 0 1.6.1.5.1 1.1.2 1.5.3.5.1.9.3 1.3.4.4.2.7.3.9.5.3.2.4.3.5.5.1.2.1.4.1.7v.8c0 .5-.2.7-.5.7-.2 0-.5-.1-.9-.3-1.4-.6-2.9-.9-4.6-.9-1.2 0-2.2.2-2.9.6-.7.4-1 1-1 1.9 0 .6.2 1.1.6 1.5.4.4 1.3.8 2.4 1.2l3 1c1.6.5 2.7 1.2 3.4 2.1.7.9 1 1.9 1 3 0 .9-.2 1.8-.6 2.5-.4.7-1 1.4-1.7 1.9-.7.5-1.6.9-2.6 1.2-.9.2-2.1.4-3.2.4z" fill="#252F3E"/>
  <path d="M64.4 38.5c-7 5.2-17.2 8-26 8-12.3 0-23.4-4.5-31.7-12.1-.7-.6-.1-1.4.7-1 9 5.3 20.2 8.4 31.7 8.4 7.8 0 16.3-1.6 24.1-5 1.2-.6 2.2.7 1.2 1.7z" fill="#FF9900"/>
  <path d="M67.8 34.6c-.9-1.2-6-0.6-8.3-0.3-.7.1-.8-.5-.2-1 4.1-2.9 10.8-2 11.6-.1.8 1.8-.2 7.3-4 10.3-.6.5-1.2.2-.9-.4.9-2.2 2.8-7.3 1.8-8.5z" fill="#FF9900"/>
</svg>

