<svg width="520" height="512" viewBox="0 0 520 512" fill="none" xmlns="http://www.w3.org/2000/svg">
<path d="M469.727 134.928V377.071L260.024 498.143L50.3223 377.071V134.928L260.024 13.8564L469.727 134.928Z" fill="#160C56" stroke="#1F64E5" stroke-width="24"/>
<path d="M67.3413 146.271C67.9377 149.458 71.393 159.021 91.2915 170.51C115.791 184.655 127.484 179.933 127.484 179.933L127.607 179.862V408.53L67.3413 373.735V146.271ZM67.4067 145.028L67.3413 145.066V144.991L67.4067 145.028Z" fill="#1F64E5"/>
<path d="M265.316 30.7664L325.582 65.5609L127.484 179.933C127.484 179.933 115.792 184.654 91.2919 170.509C66.792 156.364 67.2178 145.139 67.2178 145.139L265.316 30.7664Z" fill="white"/>
<path d="M133.275 184.336C133.871 187.523 137.327 197.086 157.225 208.574C181.725 222.719 193.417 217.998 193.417 217.998L193.541 217.927V446.595L133.275 411.8V184.336ZM133.34 183.093L133.275 183.131V183.056L133.34 183.093Z" fill="#1F64E5"/>
<path d="M331.249 68.8311L391.516 103.626L193.417 217.998C193.417 217.998 181.725 222.719 157.226 208.574C132.726 194.429 133.151 183.203 133.151 183.203L331.249 68.8311Z" fill="white"/>
<path d="M199.76 222.617C200.357 225.804 203.812 235.367 223.71 246.855C248.21 261.001 259.903 256.279 259.903 256.279L260.026 256.208V484.876L199.76 450.081V222.617ZM199.826 221.374L199.76 221.412V221.337L199.826 221.374Z" fill="#1F64E5"/>
<path d="M397.735 107.112L458.001 141.907L259.903 256.279C259.903 256.279 248.211 261 223.711 246.855C199.211 232.71 199.637 221.484 199.637 221.484L397.735 107.112Z" fill="white"/>
<path d="M289.508 434.747V276.747L426.508 355.494L289.508 434.747Z" fill="#89E3BA"/>
</svg>
