<svg width="1124" height="256" viewBox="0 0 1124 256" fill="none" xmlns="http://www.w3.org/2000/svg">
<path d="M799.935 214.823V219.664H804.726C804.937 219.664 805.179 219.62 805.453 219.531C805.726 219.443 805.981 219.304 806.217 219.115C806.466 218.926 806.677 218.674 806.851 218.359C807.025 218.044 807.112 217.66 807.112 217.206C807.112 216.828 807.044 216.494 806.907 216.204C806.783 215.901 806.609 215.649 806.385 215.447C806.174 215.246 805.919 215.094 805.621 214.994C805.335 214.88 805.03 214.823 804.707 214.823H799.935ZM803.98 205.313C803.98 205.313 802.632 205.313 799.935 205.313V209.624H803.962C804.173 209.624 804.39 209.58 804.614 209.491C804.838 209.391 805.037 209.252 805.211 209.076C805.397 208.886 805.546 208.66 805.658 208.395C805.782 208.13 805.844 207.828 805.844 207.487C805.844 207.16 805.788 206.863 805.677 206.599C805.565 206.334 805.416 206.107 805.229 205.918C805.055 205.729 804.856 205.584 804.633 205.483C804.421 205.37 804.204 205.313 803.98 205.313ZM805.453 225.336H792.907V199.622H804.39C805.72 199.622 806.913 199.779 807.969 200.094C809.026 200.41 809.927 200.876 810.672 201.494C811.418 202.111 811.99 202.874 812.387 203.781C812.785 204.689 812.984 205.741 812.984 206.939C812.984 207.456 812.897 207.966 812.723 208.47C812.561 208.975 812.344 209.441 812.07 209.87C811.797 210.286 811.48 210.657 811.12 210.985C810.772 211.3 810.411 211.533 810.039 211.685C810.61 211.912 811.157 212.22 811.679 212.611C812.201 212.989 812.661 213.431 813.058 213.935C813.456 214.426 813.773 214.975 814.009 215.58C814.245 216.185 814.363 216.828 814.363 217.508C814.363 218.97 814.096 220.199 813.562 221.195C813.04 222.191 812.356 222.998 811.511 223.615C810.666 224.233 809.709 224.674 808.641 224.939C807.584 225.204 806.522 225.336 805.453 225.336Z" fill="#160C56"/>
<path d="M830.796 199.622H838.979L829.398 215.636L829.416 225.336H822.389V215.674L812.863 199.622H820.991L825.875 209.359H825.93L830.796 199.622Z" fill="#160C56"/>
<path d="M867.427 216.317L867.446 211.326H880.569C880.681 213.531 880.432 215.536 879.823 217.338C879.227 219.128 878.345 220.666 877.176 221.952C876.021 223.225 874.629 224.214 873.001 224.92C871.373 225.613 869.596 225.96 867.669 225.96C865.731 225.96 863.91 225.607 862.208 224.901C860.518 224.195 859.039 223.231 857.771 222.008C856.516 220.786 855.522 219.355 854.789 217.716C854.055 216.065 853.689 214.307 853.689 212.441C853.689 210.563 854.055 208.811 854.789 207.185C855.522 205.546 856.516 204.115 857.771 202.893C859.039 201.67 860.518 200.712 862.208 200.019C863.91 199.313 865.731 198.96 867.669 198.96C869.621 198.96 871.441 199.313 873.131 200.019C874.834 200.725 876.338 201.714 877.642 202.987L873.075 207.62C872.466 206.788 871.696 206.126 870.764 205.634C869.832 205.143 868.8 204.897 867.669 204.897C866.7 204.897 865.793 205.092 864.948 205.483C864.103 205.861 863.363 206.391 862.73 207.071C862.108 207.739 861.611 208.533 861.238 209.454C860.878 210.374 860.698 211.376 860.698 212.46C860.698 213.531 860.878 214.533 861.238 215.466C861.611 216.386 862.108 217.187 862.73 217.868C863.363 218.536 864.103 219.065 864.948 219.456C865.793 219.834 866.7 220.023 867.669 220.023C869.422 220.023 870.77 219.695 871.715 219.04C872.659 218.372 873.287 217.464 873.597 216.317C873.908 215.17 867.427 216.317 867.427 216.317Z" fill="#160C56"/>
<path d="M891.297 211.439H895.231C895.603 211.439 895.958 211.37 896.293 211.231C896.629 211.092 896.921 210.897 897.169 210.645C897.418 210.393 897.61 210.09 897.747 209.737C897.896 209.372 897.971 208.968 897.971 208.527C897.971 208.111 897.896 207.72 897.747 207.355C897.61 206.989 897.418 206.674 897.169 206.41C896.921 206.145 896.629 205.937 896.293 205.786C895.97 205.634 895.622 205.559 895.249 205.559H891.297V211.439ZM905.632 225.336H897.598L893.646 217.376H891.297V225.336H884.27V199.622H895.548C896.927 199.622 898.195 199.842 899.35 200.283C900.506 200.712 901.5 201.317 902.333 202.099C903.178 202.88 903.83 203.819 904.29 204.916C904.762 206 904.999 207.204 904.999 208.527C904.999 210.33 904.595 211.893 903.787 213.216C902.992 214.527 901.904 215.542 900.525 216.26L905.632 225.336Z" fill="#160C56"/>
<path d="M923.966 215.447C923.966 215.447 923.966 210.172 923.966 199.622H930.994V215.428C930.994 216.941 930.727 218.347 930.192 219.645C929.67 220.931 928.912 222.04 927.918 222.973C926.936 223.905 925.737 224.636 924.32 225.166C922.916 225.695 921.338 225.96 919.586 225.96C917.97 225.96 916.466 225.72 915.074 225.241C913.683 224.75 912.471 224.05 911.439 223.143C910.42 222.235 909.619 221.132 909.035 219.834C908.451 218.523 908.159 217.054 908.159 215.428V199.622H915.168V215.466C915.168 216.134 915.261 216.752 915.447 217.319C915.634 217.886 915.913 218.378 916.286 218.794C916.659 219.197 917.119 219.512 917.666 219.739C918.225 219.966 918.865 220.08 919.586 220.08C920.294 220.08 920.921 219.966 921.468 219.739C922.015 219.512 922.469 219.197 922.829 218.794C923.202 218.378 923.482 217.886 923.668 217.319C923.867 216.752 923.966 216.128 923.966 215.447Z" fill="#160C56"/>
<path d="M958.891 199.622V225.336H952.795L942.17 211.496V225.336H935.142V199.622H941.312L951.882 213.405V199.622H958.891Z" fill="#160C56"/>
<path d="M968.351 225.336V205.559H961.659V199.622H982.015V205.559H975.342V225.336H968.351Z" fill="#160C56"/>
<path d="M1007.11 199.66L1010.65 215.372H1010.72L1015.2 199.603H1022.62L1014.14 225.336H1007.41L1003.42 211.76L999.41 225.336H992.68L984.199 199.603H991.618L996.11 215.372H996.204L999.708 199.66H1007.11Z" fill="#160C56"/>
<path d="M1022.24 212.441C1022.24 210.563 1022.6 208.811 1023.34 207.185C1024.07 205.546 1025.06 204.115 1026.32 202.893C1027.59 201.67 1029.06 200.712 1030.76 200.019C1032.46 199.313 1034.28 198.96 1036.22 198.96C1038.14 198.96 1039.95 199.313 1041.64 200.019C1043.34 200.712 1044.83 201.67 1046.1 202.893C1047.36 204.115 1048.36 205.546 1049.1 207.185C1049.83 208.811 1050.2 210.563 1050.2 212.441C1050.2 214.307 1049.83 216.065 1049.1 217.716C1048.36 219.355 1047.36 220.786 1046.1 222.008C1044.83 223.231 1043.34 224.195 1041.64 224.901C1039.95 225.607 1038.14 225.96 1036.22 225.96C1034.28 225.96 1032.46 225.607 1030.76 224.901C1029.06 224.195 1027.59 223.231 1026.32 222.008C1025.06 220.786 1024.07 219.355 1023.34 217.716C1022.6 216.065 1022.24 214.307 1022.24 212.441ZM1029.25 212.46C1029.25 213.531 1029.43 214.533 1029.79 215.466C1030.16 216.386 1030.66 217.187 1031.28 217.868C1031.91 218.536 1032.65 219.065 1033.5 219.456C1034.34 219.834 1035.25 220.023 1036.22 220.023C1037.19 220.023 1038.09 219.834 1038.94 219.456C1039.8 219.065 1040.54 218.536 1041.16 217.868C1041.79 217.187 1042.29 216.386 1042.65 215.466C1043.01 214.533 1043.19 213.531 1043.19 212.46C1043.19 211.376 1043.01 210.374 1042.65 209.454C1042.29 208.533 1041.79 207.739 1041.16 207.071C1040.54 206.391 1039.8 205.861 1038.94 205.483C1038.09 205.092 1037.19 204.897 1036.22 204.897C1035.25 204.897 1034.34 205.092 1033.5 205.483C1032.65 205.861 1031.91 206.391 1031.28 207.071C1030.66 207.739 1030.16 208.533 1029.79 209.454C1029.43 210.374 1029.25 211.376 1029.25 212.46Z" fill="#160C56"/>
<path d="M1060.85 211.439H1064.78C1065.16 211.439 1065.51 211.37 1065.85 211.231C1066.18 211.092 1066.47 210.897 1066.72 210.645C1066.97 210.393 1067.16 210.09 1067.3 209.737C1067.45 209.372 1067.52 208.968 1067.52 208.527C1067.52 208.111 1067.45 207.72 1067.3 207.355C1067.16 206.989 1066.97 206.674 1066.72 206.41C1066.47 206.145 1066.18 205.937 1065.85 205.786C1065.52 205.634 1065.18 205.559 1064.8 205.559H1060.85V211.439ZM1075.19 225.336H1067.15L1063.2 217.376H1060.85V225.336H1053.82V199.622H1065.1C1066.48 199.622 1067.75 199.842 1068.9 200.283C1070.06 200.712 1071.05 201.317 1071.89 202.099C1072.73 202.88 1073.38 203.819 1073.84 204.916C1074.32 206 1074.55 207.204 1074.55 208.527C1074.55 210.33 1074.15 211.893 1073.34 213.216C1072.55 214.527 1071.46 215.542 1070.08 216.26L1075.19 225.336Z" fill="#160C56"/>
<path d="M1085 199.622V211.118L1093.43 199.622H1101.57L1092.81 211.099L1101.87 225.336H1093.59L1088.23 216.204L1085 220.515V225.336H1077.97V199.622H1085Z" fill="#160C56"/>
<path d="M1024.53 118.876C1024.53 102.832 1038.47 92.3319 1062.32 92.3319C1086.26 92.3319 1100.2 103 1102.3 117.952V120.472H1079.96C1079.12 112.072 1072.65 108.712 1062.99 108.712C1053.67 108.712 1047.71 112.24 1047.71 118.036C1047.71 123.916 1052.66 126.1 1059.05 127.192L1075.51 129.88C1093.23 132.736 1105.41 139.204 1105.41 155.668C1105.41 172.72 1092.05 183.976 1065.77 183.976C1039.48 183.976 1024.86 172.552 1022.76 157.096V154.576H1045.69C1046.62 163.648 1055.01 167.512 1065.77 167.512C1076.6 167.512 1082.31 163.816 1082.31 157.432C1082.31 151.468 1077.27 149.452 1069.54 148.192L1053 145.504C1036.2 142.732 1024.53 134.5 1024.53 118.876Z" fill="#160C56"/>
<path d="M1019.39 96.532L981.674 132.232L1019.81 179.44V181.96H993.349L966.052 147.016L956.561 156.004V181.96H932.12V61H956.561V126.856H958.241L992.425 94.012H1019.39V96.532Z" fill="#160C56"/>
<path d="M823.788 138.028C823.788 107.62 843.778 91.996 870.991 91.996C898.203 91.996 918.277 107.62 918.277 138.028C918.277 168.352 898.203 183.976 870.991 183.976C843.778 183.976 823.788 168.352 823.788 138.028ZM848.817 138.028C848.817 156.34 857.552 166 870.991 166C884.513 166 893.248 156.34 893.248 138.028C893.248 119.716 884.513 110.056 870.991 110.056C857.552 110.056 848.817 119.716 848.817 138.028Z" fill="#160C56"/>
<path d="M719.824 138.028C719.824 107.62 739.814 91.996 767.026 91.996C794.239 91.996 814.313 107.62 814.313 138.028C814.313 168.352 794.239 183.976 767.026 183.976C739.814 183.976 719.824 168.352 719.824 138.028ZM744.853 138.028C744.853 156.34 753.588 166 767.026 166C780.549 166 789.284 156.34 789.284 138.028C789.284 119.716 780.549 110.056 767.026 110.056C753.588 110.056 744.853 119.716 744.853 138.028Z" fill="#160C56"/>
<path d="M618.259 181.96V61H642.952V102.58H644.632C648.075 97.792 655.55 92.332 670.249 92.332C692.254 92.332 710.396 106.864 710.396 138.028C710.396 169.192 692.254 183.724 670.249 183.724C655.55 183.724 647.487 178.264 643.624 171.964H641.944V181.96H618.259ZM641.944 138.028C641.944 156.088 650.511 165.412 663.614 165.412C676.8 165.412 685.367 156.088 685.367 138.028C685.367 119.968 676.8 110.56 663.614 110.56C650.511 110.56 641.944 119.968 641.944 138.028Z" fill="#160C56"/>
<path d="M516.591 181.96V94.0119H520.852L540.277 104.344H541.956C544.896 99.7239 551.951 92.3319 568.245 92.3319C588.235 92.3319 600.833 103.504 600.833 124.168V181.96H576.056V125.596C576.056 115.516 570.261 110.56 560.938 110.56C550.355 110.56 541.284 116.44 541.284 131.308V181.96H516.591Z" fill="#160C56"/>
<path d="M498.398 94.012V181.96H474.713V171.712H473.033C470.094 176.332 462.954 183.724 447.08 183.724C427.343 183.724 414.744 172.552 414.744 151.888V94.012H439.437V150.376C439.437 160.456 445.316 165.496 454.387 165.496C464.634 165.496 473.705 159.532 473.705 144.664V94.012H498.398Z" fill="#160C56"/>
<path d="M397.042 149.536L398.47 162.472C399.309 170.536 400.485 174.82 403.761 179.44V181.96H377.22C374.784 177.34 373.609 173.056 372.853 163.984L372.097 154.072C371.005 140.716 365.209 134.92 347.991 134.92H327.834V181.96H301.965V61H358.238C382.343 61 401.073 71.332 401.073 94.684C401.073 111.568 391.078 120.724 378.228 123.832V125.512C390.994 128.956 395.614 136.264 397.042 149.536ZM355.383 79.9H327.834V115.936H355.383C367.813 115.936 375.96 109.972 375.96 97.96C375.96 85.948 367.813 79.9 355.383 79.9Z" fill="#160C56"/>
<path d="M234.835 67.4639V188.535L129.997 249.07L25.1587 188.535V67.4639L129.997 6.92871L234.835 67.4639Z" stroke="#160C56" stroke-width="12"/>
<path d="M33.6704 73.1382C33.9698 74.7339 35.7011 79.5131 45.644 85.2544C57.8583 92.3071 63.7051 89.9794 63.7378 89.9663L63.7993 89.9302V204.265L33.6704 186.868V73.1382ZM33.7036 72.5142L33.6704 72.5337V72.4956L33.7036 72.5142Z" fill="#160C56"/>
<path d="M132.642 15.3833L162.772 32.7806L63.7342 89.9667C63.7342 89.9667 57.8889 92.3273 45.6404 85.2548C33.3919 78.1822 33.6047 72.5694 33.6047 72.5694L132.642 15.3833Z" fill="#160C56" fill-opacity="0.5"/>
<path d="M66.6372 92.1704C66.9366 93.7661 68.6679 98.5453 78.6108 104.287C90.8188 111.336 96.666 109.014 96.7046 108.999L96.7671 108.962V223.297L66.6372 205.9V92.1704ZM66.6704 91.5464L66.6372 91.5659V91.5278L66.6704 91.5464Z" fill="#160C56"/>
<path d="M165.605 34.4155L195.735 51.8128L96.6971 108.999C96.6971 108.999 90.8518 111.36 78.6033 104.287C66.3548 97.2144 66.5676 91.6016 66.5676 91.6016L165.605 34.4155Z" fill="#160C56" fill-opacity="0.5"/>
<path d="M99.8799 111.311C100.179 112.907 101.911 117.686 111.854 123.427C124.059 130.475 129.906 128.156 129.947 128.139L130.01 128.103V242.438L99.8799 225.041V111.311ZM99.9131 110.687L99.8799 110.707V110.668L99.9131 110.687Z" fill="#160C56"/>
<path d="M198.844 53.5562L228.974 70.9534L129.936 128.14C129.936 128.14 124.091 130.5 111.842 123.428C99.5935 116.355 99.8064 110.742 99.8064 110.742L198.844 53.5562Z" fill="#160C56" fill-opacity="0.5"/>
<path d="M144.737 217.374V138.374L213.229 177.747L144.737 217.374Z" fill="#160C56"/>
</svg>
